<svg width="482" height="479" viewBox="0 0 482 479" fill="none" xmlns="http://www.w3.org/2000/svg">
<path d="M282.453 215.715C283.75 213.979 283.874 211.847 286.102 211.589C287.82 209.2 285.445 206.021 285.445 203.371C285.445 198.937 279.287 199.414 275.848 199.414C271.381 199.414 267.138 198.902 263.114 200.767C259.861 202.274 257.192 202.733 253.262 203.202C244.633 204.23 235.247 203.48 226.916 205.84C217.36 208.546 207.849 212.893 200.717 219.503C192.239 227.361 199.862 241.468 208.964 246.289C212.084 247.941 215.791 248.648 218.743 250.618C220.487 251.782 221.382 253.589 223.377 254.473C224.543 254.99 225.743 255.387 226.843 256.029C229.536 257.6 235.644 257.246 238.812 257.246C245.995 257.246 251.498 254.377 257.859 251.429C262.762 249.157 264.522 242.509 267.383 238.679C271.009 233.825 274.023 228.209 277.053 223.156C278.637 220.511 280.544 218.271 282.453 215.715Z" fill="black"/>
<path d="M308.442 56.857C313.847 53.8511 318.848 49.0052 322.225 45.0926C324.073 42.9511 327.582 40.9496 330.107 43.875C330.504 44.3351 333.388 45.325 334.048 45.3969C335.325 45.5363 336.386 46.3124 337.439 47.083C338.151 47.6044 338.86 48.1233 339.63 48.4407C339.81 48.5146 339.988 48.5884 340.164 48.6616C343.263 49.9466 345.963 51.0665 349.774 49.9627C353.479 48.8895 354.221 47.4187 355.421 45.0406C355.779 44.3314 356.177 43.5416 356.707 42.6575C357.794 40.8446 357.484 37.3164 357.227 34.3881C357.127 33.2564 357.036 32.2142 357.036 31.3954C357.036 31.2752 357.035 31.1437 357.035 31.0022C357.024 28.3747 357.001 22.305 359.991 21.689C360.358 21.6135 360.69 21.5285 361.002 21.4487C362.228 21.1351 363.133 20.9034 364.552 21.6552C366.134 22.4927 366.165 21.4205 366.201 20.2271C366.216 19.7073 366.232 19.1646 366.377 18.7467C366.574 18.1771 366.776 17.5741 366.985 16.949C368.338 12.8947 370.003 7.91153 372.945 5.08332C373.467 4.58155 373.936 4.03114 374.39 3.49795C375.733 1.92004 376.948 0.492885 379.039 0.923438C380.263 1.17556 381.186 1.71228 382.148 2.27179C382.522 2.48914 382.902 2.70994 383.308 2.91883C383.897 3.22239 384.555 3.47392 385.219 3.7275C386.615 4.26142 388.036 4.80439 388.891 5.86118C389.673 6.82839 390.497 7.78072 391.322 8.73411C392.535 10.136 393.75 11.5402 394.838 12.9972C395.698 14.1484 396.749 15.3608 397.831 16.6094C400.058 19.1795 402.419 21.9032 403.523 24.5637C404.986 28.09 407.013 31.8466 408.877 35.3003L409.069 35.6567C409.862 37.1271 410.545 38.6286 411.196 40.1378C413.857 42.8705 419.218 46.6529 421.038 44.4837C421.735 43.6537 421.961 42.6327 422.173 41.678C422.479 40.3026 422.754 39.0649 424.359 38.7343C428.239 37.935 431.233 39.4178 433.882 41.7443C434.143 41.9728 434.411 42.2062 434.684 42.4442C436.928 44.3966 439.528 46.6591 440.961 49.0494C441.378 49.7446 441.827 50.6224 442.31 51.5687C443.617 54.1251 445.179 57.1813 447.055 58.4853C450.141 60.6303 451.518 63.673 452.903 66.7328C453.175 67.3334 453.447 67.9346 453.732 68.5298C454.071 69.2356 454.3 70.2197 454.54 71.2497C454.96 73.0533 455.413 74.9978 456.542 75.835C461.084 79.2031 467.151 81.6977 472.482 83.8899C472.754 84.0015 473.023 84.1123 473.291 84.2224C477.162 85.8171 480.337 89.0605 480.515 93.3538C480.529 93.6712 480.69 94.0853 480.863 94.5303C481.229 95.4691 481.648 96.5455 480.844 97.1417C480.18 97.6341 479.4 100.307 479.238 101.132C479.021 102.24 478.641 103.101 478.251 103.987C477.941 104.689 477.625 105.406 477.377 106.273C476.529 109.243 475.518 109.317 472.269 109.317C471.745 109.317 471.118 109.27 470.443 109.22C468.192 109.052 465.401 108.844 464.095 110.196C463.177 111.148 462.731 112.424 462.29 113.687C462.007 114.498 461.725 115.303 461.322 116.013C459.503 119.217 457.816 122.449 456.542 125.754C456.367 126.208 456.385 126.904 456.404 127.609C456.427 128.515 456.451 129.435 456.068 129.88C455.373 130.684 454.861 131.823 454.368 132.92C454.157 133.39 453.949 133.852 453.732 134.276C452.977 135.754 452.593 137.19 452.212 138.613C451.717 140.464 451.228 142.291 449.938 144.152C449.169 145.259 448.59 146.281 448.05 147.233C446.654 149.695 445.526 151.684 442.092 153.452C438.394 155.357 433.916 155.201 429.65 155.052C428.522 155.013 427.409 154.974 426.329 154.974C425.475 154.974 424.619 154.968 423.764 154.962H423.763C422.051 154.95 420.338 154.938 418.63 154.974C417.405 155 416.22 155.298 415.044 155.593C413.927 155.873 412.82 156.152 411.697 156.192C411.253 156.207 410.39 156.333 409.342 156.485C408.146 156.659 406.709 156.867 405.372 156.99C405.261 157.373 405.126 157.75 404.992 158.128C404.623 159.165 404.254 160.203 404.363 161.366C404.414 161.91 404.859 162.583 405.296 163.244C405.817 164.031 406.328 164.803 406.151 165.323C405.964 165.87 405.621 166.436 405.291 166.982C405.13 167.247 404.972 167.507 404.837 167.758C404.313 168.729 403.811 169.695 403.312 170.655C402.323 172.557 401.346 174.435 400.239 176.281C399.675 177.223 399.138 178.203 398.597 179.192C396.452 183.111 394.234 187.162 389.877 189.538C385.181 192.098 380.688 196.026 376.886 199.549C376.473 199.933 376.081 200.309 375.705 200.67C372.594 203.655 370.525 205.64 365.575 202.728C365.362 202.603 365.144 202.483 364.922 202.367C364.959 203.406 365.266 204.311 365.574 205.218C365.881 206.122 366.188 207.028 366.231 208.072C366.368 211.354 368.17 211.809 370.408 212.374C371.698 212.699 373.134 213.062 374.478 214.024C375.74 214.928 377.324 215.421 378.929 215.921C380.586 216.436 382.265 216.959 383.637 217.947C384.562 218.614 385.39 218.896 386.155 219.157C387.425 219.59 388.519 219.963 389.584 221.938C391.503 225.494 395.172 226.808 399.108 226.808C402.314 226.808 404.54 228.577 406.854 230.416L406.953 230.495C407.42 230.865 407.979 231.467 408.587 232.123C409.925 233.563 411.501 235.261 412.864 235.331C415.676 235.476 421.063 238.122 422.717 240.336C423.747 241.715 426.143 244.503 427.679 245.409C429.394 246.421 431.779 246.982 434.205 247.554C437.615 248.356 441.106 249.178 442.931 251.294C443.002 251.376 442.999 251.735 442.995 252.185C442.989 252.865 442.981 253.753 443.223 254.202C443.504 254.722 443.628 255.238 443.751 255.755C443.87 256.249 443.989 256.744 444.245 257.246C444.43 257.608 444.627 257.984 444.829 258.37L444.83 258.371C445.649 259.936 446.545 261.646 446.982 263.063C447.437 264.542 448.321 265.9 449.195 267.245C450.414 269.119 451.616 270.967 451.616 273.074C451.616 273.471 451.621 273.853 451.626 274.224L451.626 274.227C451.658 276.491 451.684 278.318 450.448 280.379C450.168 280.848 449.881 281.283 449.603 281.704C448.576 283.264 447.675 284.631 447.675 286.771C447.675 288.939 447.837 291.112 448 293.298C448.166 295.512 448.332 297.741 448.332 299.995C448.332 306.125 442.584 305.76 437.379 305.429C436.863 305.397 436.352 305.364 435.853 305.339C433.306 305.207 431.027 304.229 428.728 303.244C426.214 302.165 423.678 301.077 420.746 301.077C414.492 301.077 407.617 299.808 401.918 298.169C400.748 297.832 399.527 297.703 398.306 297.573C396.778 297.411 395.249 297.249 393.817 296.681C391.553 295.781 387.896 294.99 385.425 294.99C384.789 294.99 384.364 296.676 383.955 298.301C383.648 299.517 383.35 300.699 382.98 301.111C379.999 304.427 379.604 304.339 374.604 303.236L374.478 303.208C374.361 303.182 374.253 303.149 374.153 303.11L374.195 303.198C374.647 304.125 374.919 304.683 373.499 303.986C372.949 303.716 372.091 303.641 371.26 303.569C370.028 303.461 368.859 303.359 368.859 302.633C368.859 301.54 369.025 300.531 369.19 299.529C369.353 298.541 369.515 297.559 369.515 296.511C369.515 294.63 367.501 293.166 365.802 291.93C365.286 291.555 364.8 291.202 364.407 290.863C359.355 286.516 353.004 284.612 346.418 282.78C343.758 282.041 341.585 281.435 339.302 280.075C338.67 279.698 338.02 279.553 337.385 279.41C336.784 279.276 336.197 279.144 335.653 278.824C334.016 277.858 332.398 277.416 330.746 276.965C329.583 276.648 328.404 276.326 327.188 275.814C324.83 274.82 322.127 274.257 319.399 273.688C315.19 272.811 310.923 271.922 307.776 269.422C306.317 268.263 304.865 267.135 303.422 266.015C299.405 262.897 295.464 259.837 291.684 256.333C290.429 255.17 289.004 254.056 287.563 252.929C284.531 250.559 281.427 248.132 279.679 245.071C279.13 244.11 278.083 243.688 277.004 243.254C275.996 242.848 274.961 242.432 274.279 241.554C273.317 240.316 271.931 239.418 270.552 238.526C268.691 237.321 266.844 236.125 266.069 234.113C265.988 233.905 265.905 233.69 265.819 233.47C264.919 231.155 263.77 228.203 263.77 225.895C263.77 224.648 264.111 223.611 264.453 222.571C264.712 221.783 264.971 220.994 265.083 220.112C265.618 215.902 272.309 212.198 276.577 212.198C277.068 212.198 277.965 212.153 279.103 212.097C281.879 211.958 286.089 211.749 289.324 211.943C287.038 209.535 284.849 206.22 284.788 204.284C284.713 201.944 284.738 199.594 284.763 197.247L284.763 197.244C284.775 196.072 284.788 194.901 284.788 193.732C284.788 188.67 284.864 188.385 288.4 185.108C293.514 180.368 300.271 175.778 306.973 173.237C308.62 172.612 310.194 172.076 311.754 171.635C311.445 170.902 311.281 170.149 311.15 169.379C309.736 169.209 308.069 168.225 306.613 167.365C305.834 166.905 305.116 166.481 304.529 166.236C302.331 165.32 300.56 165.321 298.236 165.323L297.924 165.323C296.692 165.323 295.846 166.12 294.992 166.926C294.47 167.418 293.945 167.913 293.326 168.232C290.97 169.445 288.049 171.108 286.394 173.102C281.654 178.813 277.975 170.15 276.578 166.811C276.27 166.074 276.061 165.122 275.841 164.121C275.414 162.171 274.945 160.035 273.622 158.931C272.32 157.845 270.917 157.579 269.435 157.299C268.466 157.115 267.464 156.926 266.434 156.496C262.626 154.908 255.781 154.311 253.261 157.883C251.05 161.018 250.634 166.843 250.634 170.498C250.634 175.689 246.795 176.123 243.409 172.155C240.196 168.388 240.451 164.425 240.724 160.165C240.744 159.857 240.763 159.547 240.782 159.236C240.961 156.253 239.083 155.316 236.97 154.261C236.161 153.857 235.318 153.436 234.542 152.877C230.685 150.096 230.771 147.46 230.887 143.923C230.908 143.286 230.93 142.62 230.93 141.92C230.93 134.978 214.51 142.1 214.51 148.278C217.934 148.912 218.579 157.583 215.459 159.236C214.81 159.579 214.342 159.999 213.872 160.42C213.315 160.92 212.754 161.423 211.883 161.806C211.289 162.067 210.713 162.333 210.144 162.596L210.142 162.596C208.522 163.345 206.954 164.07 205.169 164.579C193.761 167.832 190.359 152.412 189.515 144.591C189.301 142.612 188.993 140.646 188.686 138.683C188.133 135.155 187.581 131.633 187.581 128.053C187.581 125.749 187.085 123.481 186.59 121.222C186.099 118.98 185.61 116.745 185.61 114.491C185.61 113.018 185.118 111.548 184.625 110.079C184.133 108.609 183.64 107.139 183.64 105.664C183.64 103.084 185.728 104.112 187.839 105.15C188.939 105.691 190.045 106.235 190.865 106.273C193.08 106.376 195.216 106.774 197.354 107.172C199.841 107.636 202.331 108.099 204.95 108.099C206.238 108.099 207.445 107.234 208.565 106.43C209.029 106.097 209.478 105.775 209.912 105.529C210.904 104.968 211.128 103.866 211.347 102.79C211.549 101.797 211.747 100.826 212.539 100.321C213.662 99.6054 214.025 97.4031 214.303 95.7191C214.386 95.2161 214.461 94.7594 214.546 94.4023C214.797 93.3561 216.505 91.3262 217.367 90.3021L217.502 90.141C220.271 86.8411 224.948 87.3899 228.595 88.6191C229.552 88.9418 230.579 89.1862 231.608 89.4311C232.962 89.7535 234.319 90.0767 235.528 90.5806C237.225 91.2888 238.599 89.9172 239.938 88.5809C240.653 87.8676 241.357 87.1643 242.096 86.7928C243.719 85.9761 245.248 85.0271 246.774 84.0797C249.102 82.6345 251.424 81.1931 254.064 80.2317C254.433 80.0973 254.854 79.8879 255.308 79.6392C254.453 79.0819 253.555 78.5755 252.604 78.1348C249.721 76.7986 244.849 76.6282 242.487 79.0336C242.061 78.606 241.662 78.1425 241.281 77.7003C240.931 77.2937 240.597 76.9051 240.271 76.5791C237.959 74.2642 243.483 72.7347 245.83 72.0852L245.831 72.085L245.836 72.0836C246.022 72.032 246.188 71.9861 246.328 71.9457C249.167 71.1292 252.106 70.3562 255.086 70.3562C257.989 70.3562 261.916 70.2228 264.427 68.8004C267.714 66.9384 270.787 64.8728 273.87 62.8005C276.357 61.129 278.85 59.4532 281.467 57.8765C282.558 57.2197 283.844 56.0351 285.222 54.7661C287.83 52.3635 290.767 49.6582 293.326 49.6582C296.833 49.6582 302.201 51.2547 304.784 53.649C305.85 54.6368 307.05 55.6652 308.281 56.7197C308.335 56.7654 308.388 56.8112 308.442 56.857Z" fill="black"/>
<path d="M300.83 355.914C300.871 355.898 300.912 355.882 300.952 355.866C302.606 355.185 305.572 353.551 305.805 351.605C305.911 350.725 306.857 348.642 307.447 347.986C308.224 347.122 307.761 346.879 307.251 346.612C307.001 346.481 306.74 346.344 306.608 346.126C306.008 345.137 306.407 342.584 306.758 340.341C306.945 339.143 307.119 338.034 307.119 337.299C307.119 334.481 306.46 330.428 305.294 327.863C305.103 327.441 304.864 326.953 304.608 326.428C303.773 324.72 302.751 322.63 302.558 321.2C302.042 317.379 305.123 318.094 307.964 318.754C309.474 319.105 310.917 319.44 311.716 319.07C311.836 319.014 311.545 317.649 311.209 316.075C310.809 314.2 310.346 312.029 310.439 311.426C310.735 309.509 311.783 306.909 313.176 305.474C313.395 305.249 313.642 304.959 313.915 304.641C314.917 303.471 316.253 301.911 317.701 301.72C318.978 301.551 319.774 302.606 320.254 303.242C320.755 303.906 320.912 304.114 320.912 301.99C320.912 299.465 320 297.707 318.795 295.598C318.198 294.552 317.156 293.458 316.081 292.33C314.027 290.173 311.85 287.887 312.41 285.554C312.82 283.845 312.692 281.99 312.564 280.115C312.375 277.361 312.184 274.565 313.687 272.127C315.217 269.646 316.739 264.136 314.015 262.116C313.081 261.424 312.31 259.456 311.671 257.825C311.395 257.12 311.143 256.478 310.914 256.029C309.867 253.982 309.346 253.334 307.63 251.903C306.538 250.992 304.612 249.996 303.085 249.207C302.752 249.035 302.438 248.873 302.156 248.724C299.36 247.243 295.656 243.533 293.837 241.08C293.358 240.435 290.79 237.318 290.735 237.495C290.458 238.395 289.72 237.506 288.963 236.596C288.521 236.064 288.073 235.525 287.707 235.331C286.75 234.824 285.87 233.681 285.013 232.568C284.495 231.895 283.986 231.234 283.474 230.731C283.184 230.446 282.87 230.151 282.547 229.847C281.438 228.803 280.227 227.663 279.533 226.538C279.241 226.063 278.571 225.818 277.888 225.568C277.257 225.337 276.615 225.102 276.249 224.678C275.561 223.88 275.24 224.85 275.015 225.53C274.931 225.784 274.861 225.998 274.789 226.064C274.245 226.569 273.213 226.806 272.141 227.053C271.028 227.31 269.871 227.576 269.17 228.161C266.913 230.043 263.903 229.846 260.916 229.649C258.354 229.481 255.809 229.314 253.772 230.461C253.333 230.708 252.775 230.943 252.182 231.194C249.986 232.122 247.301 233.257 248.335 235.94C249.15 238.056 249.32 240.856 249.32 243.109C249.32 245.625 247.598 247.885 245.708 249.637C245.101 250.199 244.727 250.708 244.417 251.13C243.816 251.948 243.453 252.442 242.095 252.376C238.398 252.196 237.143 251.683 236.147 248.453C235.364 245.913 234.733 244.607 232.535 242.94C230.513 241.407 227.503 241.421 224.819 241.433C224.153 241.436 223.508 241.439 222.902 241.418C221.019 241.354 219.26 240.283 217.566 239.251C216.641 238.687 215.734 238.135 214.838 237.766C213.693 237.294 208.005 228.831 208.27 228.634C209.29 227.878 209.852 226.705 210.412 225.536C211.081 224.137 211.749 222.744 213.196 222.073C214.119 221.645 214.931 221.02 215.741 220.396C216.897 219.506 218.047 218.62 219.508 218.319C221.242 217.962 223.017 218.242 224.801 218.523C226.089 218.726 227.382 218.929 228.667 218.894C230.033 218.857 230.898 217.706 231.793 216.516C232.496 215.581 233.217 214.621 234.213 214.159C234.44 214.054 234.673 213.938 234.912 213.82C235.886 213.335 236.948 212.807 238.008 212.807C238.698 212.807 238.912 213.261 239.134 213.734C239.298 214.081 239.467 214.439 239.833 214.633C240.21 214.833 240.651 215.33 241.134 215.875C242.168 217.041 243.392 218.42 244.576 217.541C245.04 217.198 245.54 216.847 246.054 216.486C247.272 215.63 248.57 214.719 249.648 213.72C250.573 212.863 251.964 212.349 253.324 211.847C254.835 211.29 256.307 210.746 257.056 209.763C257.959 208.576 260.089 207.85 262.034 207.186C263.079 206.83 264.071 206.492 264.791 206.11C267.253 204.806 268.302 205.779 269.927 207.286L269.973 207.328C271.392 208.643 273.256 209.368 275.136 210.1C276.782 210.74 278.441 211.385 279.825 212.435C280.899 213.249 281.647 214.363 282.4 215.485C282.832 216.13 283.266 216.777 283.766 217.372C284.722 218.511 288.106 218.762 289.813 218.888L289.896 218.894C293.129 219.134 296.721 219.646 300.041 220.12L300.222 220.146C303.822 220.659 305.585 220.566 309.089 219.638C309.36 219.567 309.686 219.486 310.052 219.396C312.341 218.831 316.152 217.89 317.117 216.459C317.408 216.027 317.779 215.744 318.153 215.458C318.633 215.091 319.118 214.72 319.452 214.024C319.723 213.458 319.73 212.788 319.736 212.112C319.742 211.526 319.748 210.935 319.926 210.405C320.717 208.061 319.595 204.617 318.43 202.458C317.965 201.596 317.3 200.627 316.59 199.594C314.541 196.61 312.119 193.084 313.067 190.012C313.584 188.334 313.687 186.745 313.687 184.804C313.687 183.879 314.014 183.053 314.342 182.225C314.671 181.395 315 180.563 315 179.629C315 178.488 314.84 177.351 314.677 176.202C314.511 175.029 314.344 173.843 314.344 172.628C314.344 170.818 312.257 169.325 310.694 168.206C310.475 168.049 310.266 167.9 310.074 167.758C308.201 166.369 306.591 164.774 304.978 163.175C303.281 161.494 301.58 159.808 299.566 158.356C299.12 158.035 298.632 157.897 298.13 157.756C297.615 157.61 297.085 157.461 296.573 157.105C295.989 156.698 295.609 156.275 295.252 155.877C295.008 155.605 294.775 155.344 294.494 155.109C293.39 154.189 291.504 154.239 289.617 154.289C287.841 154.336 286.063 154.383 284.933 153.621C284.276 153.178 283.451 153.059 282.609 152.937C281.88 152.832 281.139 152.725 280.482 152.404C279.686 152.016 278.831 151.424 277.973 150.831C277.281 150.352 276.587 149.871 275.921 149.495C275.501 149.259 275.077 149.018 274.649 148.775C271.133 146.78 267.329 144.622 263.624 143.272C260.903 142.282 258.594 140.357 256.278 138.427C254.251 136.738 252.219 135.045 249.904 133.972C244.529 131.481 237.42 128.723 231.44 127.715C228.794 127.269 226.225 127.553 223.659 127.836C222.061 128.012 220.465 128.189 218.852 128.189C214.802 128.189 213.017 134.416 211.902 138.307C211.648 139.192 211.429 139.957 211.225 140.499C209.01 146.414 209.097 150.731 209.205 156.048C209.229 157.252 209.255 158.508 209.255 159.844C209.255 161.716 209.594 163.19 209.944 164.713C210.162 165.661 210.384 166.629 210.532 167.724C210.919 170.597 208.515 172.533 206.214 174.386C205.135 175.254 204.079 176.105 203.344 177.025C201.188 179.723 198.887 181.687 195.79 183.282C194.545 183.923 192.404 183.783 190.611 183.666C189.977 183.625 189.386 183.586 188.894 183.586C186.963 183.586 184.733 184.419 182.684 185.185C181.856 185.495 181.057 185.793 180.319 186.021C178.099 186.707 173.415 190.347 173.131 192.717C172.939 194.313 171.856 195.536 170.772 196.759C169.799 197.857 168.825 198.957 168.497 200.327C167.641 203.897 164.391 209.154 159.995 209.154C157.066 209.154 154.392 208.689 151.821 207.328C149.715 206.212 152.036 209.407 152.624 209.898C155.499 212.296 155.446 217.234 155.406 221.013C155.401 221.44 155.397 221.851 155.397 222.242C155.397 222.504 155.431 222.938 155.497 223.474C155.419 223.458 155.341 223.442 155.262 223.425C154.12 223.184 152.978 222.944 151.785 223.189C147.972 223.975 144.639 223.9 140.988 223.818C139.824 223.791 138.627 223.764 137.372 223.764C133.566 223.764 131.257 222.822 128.494 221.694C127.346 221.226 126.119 220.725 124.674 220.247C120.873 218.989 119.061 217.162 116.627 214.708C116.217 214.295 115.79 213.864 115.333 213.415C113.352 211.472 113.354 211.84 113.361 213.903C113.362 214.038 113.362 214.18 113.362 214.329C113.362 216.243 113.232 218.557 112.669 220.382C112.283 221.634 111.539 223.358 110.078 224.035C109.619 224.248 103.494 226.078 103.875 225.252C103.981 225.024 104.192 224.719 104.428 224.377C105.132 223.358 106.066 222.007 105.152 221.329C104.437 220.799 104.264 219.501 104.086 218.165C103.921 216.929 103.752 215.66 103.145 214.937C101.174 212.588 97.6616 210.604 94.9719 213.72C92.226 216.901 88.9221 218.485 85.1198 220.247C82.5707 221.428 80.0807 222.717 77.593 224.005C75.8503 224.908 74.1085 225.809 72.3486 226.673C67.5156 229.044 71.2182 230.672 74.8994 231.981C73.313 233.925 71.4858 235.807 69.6848 236.548C68.0441 237.224 66.0896 238.072 65.2696 239.592C63.116 243.584 58.6135 246.943 54.2499 248.859C51.9887 249.852 49.4335 251.346 47.3534 252.681C45.9754 253.565 44.4267 253.838 42.8755 254.112C42.0118 254.265 41.1473 254.418 40.311 254.676C35.2456 256.241 31.0128 258.514 30.6049 263.807C30.4272 266.113 27.7414 270.416 25.2045 271.113C24.3157 271.357 23.1886 271.405 22.0186 271.455C19.9654 271.542 17.7803 271.636 16.5201 272.804C16.3381 272.972 16.1706 273.174 16.0077 273.37C15.3635 274.144 14.7905 274.833 13.6739 273.074C12.5918 271.369 11.5152 270.973 9.58714 270.335C9.18571 270.202 8.71076 270.016 8.20802 269.82C7.10882 269.391 5.87673 268.91 4.98951 268.813C4.52837 268.763 4.08002 268.627 3.62251 268.488C2.75101 268.224 1.8463 267.949 0.756771 268.238C0.0581436 268.423 2.54922 270.786 3.43043 271.622L3.43152 271.623C3.54104 271.727 3.62559 271.807 3.6759 271.857C4.80311 272.963 5.05806 274.243 5.30845 275.499C5.63905 277.159 5.9617 278.778 8.27353 279.906C11.0274 281.249 13.4291 280.748 15.7843 280.256C17.9593 279.802 20.0947 279.357 22.4313 280.379C22.7162 280.504 23.1611 280.654 23.6779 280.829C25.3025 281.378 27.6373 282.167 27.9412 283.153C28.113 283.71 28.1738 284.39 28.2355 285.081C28.3199 286.026 28.4061 286.991 28.7804 287.685C29.765 289.51 31.2384 291.155 32.7142 292.802C34.0516 294.296 35.391 295.791 36.3702 297.425C37.298 298.973 39.1048 300.559 40.714 301.971C41.2041 302.402 41.6759 302.816 42.099 303.208C42.4643 303.547 42.7927 303.882 43.1063 304.203C44.3784 305.503 45.4085 306.556 47.6818 306.556C52.8459 306.556 52.5787 310.564 52.3292 314.306C52.3119 314.565 52.2947 314.823 52.2794 315.079C52.2593 315.414 52.4248 315.979 52.61 316.611C52.9892 317.906 53.4513 319.483 52.5714 319.949C51.0427 320.759 49.9822 320.514 48.8015 320.243C48.2546 320.117 47.6819 319.985 47.025 319.949C46.5638 319.924 45.7672 319.628 44.9162 319.313C43.4624 318.774 41.8497 318.176 41.4787 318.765C40.9889 319.543 40.7183 320.602 40.4515 321.645C40.1326 322.893 39.8191 324.119 39.1434 324.819C37.6963 326.318 37.1309 327.979 36.5801 329.598C35.8754 331.669 35.1946 333.669 32.7213 335.168C32.0327 335.585 32.2132 335.665 32.6699 335.866C33.0055 336.014 33.4902 336.228 33.8889 336.69C34.3697 337.247 34.7361 337.821 35.1058 338.4C35.4822 338.99 35.8622 339.585 36.3702 340.173C37.1516 341.079 38.3542 343.813 38.523 344.908C38.7112 346.129 39.7317 346.924 40.7112 347.687C41.3205 348.162 41.914 348.625 42.2814 349.17C43.1244 350.42 44.1157 350.862 45.186 351.339C45.87 351.644 46.5864 351.964 47.3169 352.518C47.8731 352.939 48.3693 353.411 48.8668 353.884C49.5579 354.54 50.2519 355.199 51.1118 355.731C51.6018 356.033 52.4775 356.205 53.4643 356.3C53.3147 356.536 53.1611 356.767 53.0012 356.994C49.0915 359.829 44.3987 364.134 44.3987 368.041C44.3987 369.817 45.8513 370.953 47.3021 372.087C47.7743 372.456 48.2463 372.825 48.668 373.215C49.7385 374.208 51.0284 374.917 52.3086 375.62C52.7912 375.885 53.2724 376.15 53.7399 376.428C54.7789 377.047 56.1245 377.148 57.4583 377.247C59.1577 377.374 60.838 377.5 61.8405 378.694C62.179 379.098 62.5643 379.477 62.9498 379.856C63.4848 380.382 64.0201 380.909 64.4313 381.501C64.7566 381.971 65.0123 382.572 65.2765 383.194C65.7748 384.367 66.3034 385.611 67.3869 386.169C68.1569 386.565 68.9247 386.974 69.6961 387.385C71.794 388.502 73.9178 389.633 76.1808 390.565C77.0872 390.939 77.7975 391.449 78.5075 391.958C79.5238 392.688 80.5393 393.417 82.1285 393.744C82.6247 393.847 83.2164 393.924 83.8404 394.005L83.8415 394.006L83.8426 394.006L83.8436 394.006C86.6125 394.368 90.0168 394.813 88.5506 397.87C87.6844 399.677 87.091 400.949 87.091 403.045C87.091 405.11 89.82 405.742 92.2007 406.292C93.2999 406.547 94.3249 406.784 94.9727 407.137C96.6986 408.078 96.1844 409.973 95.7664 411.513C95.7038 411.743 95.6434 411.966 95.593 412.176C95.4264 412.871 95.2097 413.492 95.0066 414.073C94.3125 416.06 93.7788 417.588 95.9579 420.056C97.1643 421.423 98.4748 423.845 96.9431 425.265C96.454 425.718 95.7144 426.193 94.9222 426.702C93.1559 427.837 91.128 429.139 91.0319 430.744C90.8537 433.715 87.1638 433.461 84.3213 433.265L84.3202 433.265C83.6748 433.22 83.0732 433.179 82.5664 433.179C79.4349 433.179 82.3368 437.278 83.6442 439.126L83.6448 439.126L83.6477 439.13C83.8684 439.442 84.0433 439.689 84.1354 439.841C84.4895 440.425 84.8961 440.81 85.2679 441.163C85.9015 441.763 86.4342 442.268 86.4342 443.494C86.4342 444.411 86.85 445.551 87.2305 446.594C87.3654 446.964 87.4959 447.322 87.6019 447.654C88.5502 450.62 88.9896 449.915 89.7299 448.726C90.2559 447.882 90.9336 446.794 92.0536 446.605C92.6723 446.501 93.289 446.232 93.8899 445.971C94.6095 445.658 95.3068 445.354 95.9579 445.354C96.3338 445.354 96.7564 445.5 97.1621 445.64C98.0507 445.946 98.8577 446.224 98.9135 444.88C98.9239 444.631 98.9259 444.275 98.9284 443.845C98.9438 441.21 98.9752 435.799 101.03 435.14C101.59 434.961 102.705 435.025 103.945 435.096C106.246 435.229 108.977 435.386 109.386 434.058C110.162 431.541 111.164 431.001 114.166 431.826C115.458 432.181 116.713 432.808 117.95 433.427C119.181 434.042 120.394 434.649 121.61 434.971C122.763 435.276 123.926 435.506 125.097 435.738C126.632 436.041 128.183 436.348 129.747 436.831C130.74 437.138 131.419 437.614 131.962 437.994C133.055 438.761 133.595 439.139 135.038 436.966C136.358 434.978 136.367 435.231 136.4 436.102C136.427 436.838 136.471 438.016 137.337 438.657C138.896 439.814 140.99 440.316 143.072 440.816C146.011 441.521 148.928 442.22 150.29 444.745C150.503 445.139 150.722 445.521 150.938 445.897C151.885 447.545 152.771 449.089 152.771 451.103C152.771 452.018 153.115 452.917 153.458 453.813C153.892 454.949 154.323 456.078 154.049 457.225C153.936 457.696 153.684 458.106 153.434 458.515C153.102 459.057 152.771 459.596 152.771 460.269C152.771 461.007 153.676 461.663 154.867 462.224C154.71 462.284 154.547 462.342 154.377 462.399C154.012 462.522 153.657 462.605 153.319 462.683C152.416 462.892 151.638 463.072 151.129 463.921C150.178 465.508 153.472 466.484 154.705 466.627C156.138 466.793 156.733 467.608 157.28 468.358C157.792 469.06 158.262 469.704 159.339 469.704C159.793 469.704 160.273 469.663 160.761 469.62C162.662 469.455 164.681 469.279 165.761 471.531C166.069 472.172 166.297 472.74 166.504 473.255C167.182 474.945 167.63 476.061 169.885 477.28C173.43 479.197 175.332 479.156 176.453 475.522C176.685 474.767 178.047 476.04 178.857 476.796C179.115 477.037 179.317 477.226 179.408 477.28C181.116 478.287 184.258 478.934 186.268 478.836C188.255 478.739 188.462 477.595 188.658 476.509C188.81 475.668 188.955 474.863 189.917 474.608C191.637 474.153 193.458 474.509 195.227 474.854C196.988 475.198 198.697 475.532 200.207 475.048C201.48 474.64 202.759 473.835 204.025 473.039L204.026 473.038C204.902 472.486 205.773 471.939 206.629 471.531C207.539 471.097 207.703 470.604 207.883 470.063C207.998 469.715 208.121 469.346 208.454 468.96C208.745 468.623 208.73 468.231 208.716 467.833C208.699 467.382 208.682 466.923 209.11 466.525C209.145 466.493 209.193 466.446 209.25 466.389C209.724 465.917 210.878 464.769 211.19 465.781C211.923 468.159 212.931 470.743 214.803 472.478C216.153 473.729 216.982 472.03 217.799 470.353C218.173 469.587 218.545 468.825 218.963 468.352C219.676 467.543 219.91 466.444 220.14 465.359C220.362 464.313 220.581 463.281 221.225 462.535C221.998 461.639 222.914 460.96 223.837 460.276C224.809 459.555 225.791 458.828 226.625 457.834C229.544 454.356 227.558 445.92 225.312 442.648C224.958 442.133 224.462 441.721 223.967 441.309C223.35 440.795 222.734 440.282 222.393 439.571C222.289 439.355 222.195 439.113 222.098 438.864C221.795 438.085 221.462 437.227 220.714 436.831C219.996 436.451 216.416 434.544 216.846 434.43C216.96 434.4 217.074 434.371 217.189 434.342L217.381 434.294C218.29 434.067 219.204 433.838 219.911 433.314C220.469 432.901 221.343 432.623 222.246 432.337C223.207 432.032 224.2 431.717 224.874 431.217C225.542 430.721 225.573 430.119 225.605 429.493C225.625 429.101 225.645 428.7 225.822 428.309C226.426 426.98 225.92 426.411 225.345 425.765C224.95 425.32 224.521 424.838 224.399 424.047C224.112 422.18 222.976 421.137 221.789 420.047C220.949 419.275 220.082 418.48 219.473 417.351C219.187 416.82 219.143 416.334 219.101 415.873C219.061 415.433 219.024 415.018 218.78 414.611C218.407 413.989 218.784 413.512 219.174 413.016C219.453 412.664 219.738 412.302 219.765 411.872C219.776 411.7 219.786 411.523 219.796 411.342C219.913 409.166 220.052 406.605 222.684 409.741C222.821 409.904 222.968 410.083 223.125 410.274C224.54 411.995 226.755 414.689 228.961 414.916C231.659 415.194 234.416 415.334 237.225 415.477L237.227 415.477L237.228 415.477L237.229 415.477C237.537 415.493 237.846 415.509 238.156 415.525C238.99 415.568 239.716 416.139 240.445 416.714C241.023 417.169 241.604 417.627 242.243 417.824C242.965 418.047 243.865 418.167 244.738 418.283C245.312 418.359 245.874 418.433 246.366 418.535C247.091 418.684 248.585 418.595 250.147 418.502C252.56 418.358 255.132 418.205 255.269 418.907C255.536 420.268 256.216 421.579 256.888 422.877C257.616 424.281 258.336 425.67 258.517 427.091C258.611 427.833 259.274 427.951 259.923 428.065C260.338 428.138 260.746 428.211 260.998 428.444C261.314 428.737 261.19 429.181 261.063 429.637C260.955 430.025 260.844 430.422 260.998 430.744C261.395 431.571 261.24 432.486 261.083 433.419C260.848 434.808 260.607 436.236 262.166 437.474C262.541 437.772 262.873 438.044 263.172 438.29C265.472 440.178 265.79 440.439 268.369 438.049C270.441 436.128 273.24 434.396 276.25 434.396C281.698 434.396 280.514 430.466 279.454 426.952C278.742 424.591 278.087 422.418 279.534 421.747C281.197 420.977 283.662 417.698 282.162 416.133C281.395 415.334 281.428 413.96 281.461 412.587C281.497 411.084 281.533 409.58 280.52 408.828C279.355 407.965 277.564 406.2 277.564 404.871C277.564 404.553 277.202 403.981 276.82 403.375C275.863 401.86 274.774 400.137 278.878 401.658C279.593 401.923 280.177 402.331 280.749 402.729C281.645 403.354 282.511 403.958 283.804 403.958C285.78 403.958 286.826 405.176 287.837 406.353C288.176 406.747 288.511 407.137 288.876 407.475C289.027 407.616 289.167 407.756 289.298 407.888C290.053 408.649 290.519 409.119 291.357 407.611C291.434 407.471 291.578 407.244 291.753 406.969C292.371 405.995 293.373 404.415 293.181 403.958C292.803 403.056 292.961 402.219 293.128 401.33C293.226 400.811 293.327 400.275 293.327 399.697C293.327 398.001 293.226 397.942 292.703 397.64C292.469 397.505 292.152 397.322 291.722 396.923C290.966 396.223 287.687 391.132 287.781 390.87C288.109 389.957 289.081 389.517 290.095 389.057C291.222 388.547 292.403 388.012 292.817 386.777C293.348 385.191 293.124 383.237 292.906 381.339C292.644 379.058 292.392 376.86 293.473 375.482C294.874 373.696 296.139 372.794 298.217 371.694C298.751 371.411 301.128 369.17 301.464 368.616C301.993 367.746 301.736 366.622 301.485 365.527C301.346 364.92 301.209 364.321 301.209 363.78C301.209 363.447 301.2 363.164 301.193 362.911V362.91C301.162 361.921 301.146 361.391 301.72 360.127C302.003 359.504 301.464 357.857 301.032 356.539L301.032 356.538C300.96 356.319 300.891 356.109 300.83 355.914Z" fill="black"/>
</svg>
